<svg xmlns="http://www.w3.org/2000/svg" width="1040.82" height="799.22" style="
    position: fixed;
    left: 50%;
    z-index: -1;
    top: 50%;
    opacity: .75;
    transform: translate(-50%, -50%);
">
  <g stroke="null">
    <title>Layer 1</title>
    <path
      d="m617.83,132.77c-64.72,-2.66 -126.36,-27.37 -185.22,-54.41s-117.2,-57 -180.34,-71.33c-40.63,-9.21 -87.09,-10.51 -119.86,15.25c-31.5,24.8 -41.68,67.6 -47.15,107.32c-4.12,29.88 -6.54,61.33 4.74,89.3c7.83,19.42 21.74,35.75 31.36,54.35c33.47,64.73 9.81,144.54 -26.45,207.75c-17,29.64 -36.75,57.93 -49.88,89.49s-19.2,67.72 -7.71,99.91c11.38,31.91 38.51,55.88 67.9,72.74c59.69,34.24 130,44 198.61,49.59c151.82,12.28 304.46,7 456.69,1.64c56.33,-2 112.92,-4 168.34,-14.28c30.78,-5.72 62.55,-14.8 84.89,-36.73c28.37,-27.83 35.4,-75 16.39,-109.86c-31.88,-58.54 -120,-73.08 -142.31,-135.91c-12.26,-34.58 0.33,-73.1 18.16,-105.17c38.23,-68.8 102.33,-129.16 105.7,-207.8c2.32,-54 -28.49,-108.1 -76.13,-133.65c-49.93,-26.79 -119.18,-23.42 -156,20.92c-37.92,45.66 -104.58,63.23 -161.73,60.88z"
      fill="#ffd700"
      opacity="0.1"
      id="svg_1"
      stroke="null"
    ></path>
    <path
      d="m161.72,271.31l2.27,5s-0.19,0.16 -0.59,0.46c-0.31,-0.74 -0.63,-1.45 -1,-2.15c-0.48,-1 -0.95,-2 -1.42,-2.94c0.24,-0.14 0.46,-0.29 0.68,-0.41l0.06,0.04z"
      opacity="0.1"
      id="svg_17"
      stroke="null"
    ></path>
    <path
      d="m241.91,653.61c-0.58,0.71 -2.28,1.51 -4.63,2.32c2.81,-1.32 4.63,-2.32 4.63,-2.32z"
      opacity="0.1"
      id="svg_32"
      stroke="null"
    ></path>
    <polygon
      points="356.94 385.76 356.94 385.76 356.94 385.76 356.94 385.76 356.94 385.76"
      fill="none"
      stroke-miterlimit="10"
      id="svg_65"
      stroke="#c1272d"
    ></polygon>
    <g opacity="0.1" id="svg_74" stroke="null">
      <path
        d="m876.89,661.37c15.33,22.63 10.43,103.65 10.43,103.65s-77,-25.5 -92.38,-48.13a49.49,49.49 0 0 1 82,-55.52l-0.05,0z"
        fill="#ffd700"
        id="svg_75"
        stroke="null"
      ></path>
      <path
        d="m876.89,661.37c15.33,22.63 10.43,103.65 10.43,103.65s-77,-25.5 -92.38,-48.13a49.49,49.49 0 0 1 82,-55.52l-0.05,0z"
        opacity="0.1"
        id="svg_76"
        stroke="null"
      ></path>
      <path
        d="m808.46,648.21s57.74,44.58 79.16,116.87"
        fill="none"
        stroke-miterlimit="10"
        id="svg_77"
        stroke="#535461"
      ></path>
      <path
        d="m902.16,703.67s-41,-7 -13,60.91c0,0 28.49,-10.85 30.71,-37.87a21.55,21.55 0 0 0 -17.15,-22.92l-0.56,-0.12z"
        fill="#ffd700"
        id="svg_78"
        stroke="null"
      ></path>
      <path
        d="m902.77,703.61s7.81,37.56 -13.56,61"
        fill="none"
        stroke-miterlimit="10"
        id="svg_79"
        stroke="#535461"
      ></path>
    </g>
    <g opacity="0.1" id="svg_80" stroke="null">
      <path
        d="m332.28515,671.61s71.66344,-168.30127 208.67117,-231.96632c57.51229,-26.7138 104.8069,-69.03568 133.4234,-122.20602a500.41047,460.95253 0 0 0 32.84089,-78.64064"
        fill="none"
        stroke-miterlimit="10"
        stroke-width="2"
        id="svg_81"
        stroke="#535461"
      ></path>
      <path
        d="m793.30285,198.20104c-14.15115,16.79796 -88.18862,41.88236 -88.18862,41.88236s8.02984,-72.29451 22.18098,-89.08176a41.77846,38.48418 0 1 1 66.00764,47.16724l0,0.03216z"
        fill="#ffd700"
        id="svg_82"
        stroke="null"
      ></path>
      <path
        d="m769.46934,330.22642c-21.78531,7.01076 -98.74379,-9.00466 -98.74379,-9.00466s49.40099,-56.65428 71.1863,-63.66505a41.77846,38.48418 0 1 1 27.55749,72.66971z"
        fill="#ffd700"
        id="svg_83"
        stroke="null"
      ></path>
      <path
        d="m633.13658,487.45411c-22.65812,-4.07354 -80.29842,-53.68489 -80.29842,-53.68489s73.69999,-25.94198 96.34647,-21.85773a41.77846,38.48418 0 0 1 -16.03641,75.54262l-0.01164,0z"
        fill="#ffd700"
        id="svg_84"
        stroke="null"
      ></path>
      <path
        d="m500.88857,585.02597c-23.06543,-0.49312 -88.9916,-40.41375 -88.9916,-40.41375s67.86962,-37.037 90.94669,-36.54389a41.77846,38.48418 0 0 1 -1.95509,76.95763l0,0.00001z"
        fill="#ffd700"
        id="svg_85"
        stroke="null"
      ></path>
      <path
        d="m598.72463,274.97643c3.21194,21.04302 53.90469,76.7218 53.90469,76.7218s32.06118,-66.39861 28.84924,-87.45234a41.79009,38.4949 0 0 0 -82.75392,10.73054l-0.00001,0z"
        fill="#ffd700"
        id="svg_86"
        stroke="null"
      ></path>
      <path
        d="m445.61067,390.82559c9.90347,19.22065 76.30677,58.35874 76.30677,58.35874s9.03067,-72.19803 -0.88444,-91.39724a41.77846,38.48418 0 1 0 -75.46888,33.0385l0.04655,0z"
        fill="#ffd700"
        id="svg_87"
        stroke="null"
      ></path>
      <path
        d="m313.60704,522.29354c6.23768,20.46415 64.56459,69.41088 64.56459,69.41088s22.11116,-69.75391 15.89676,-90.21806a41.79009,38.4949 0 0 0 -80.46135,20.80718z"
        fill="#ffd700"
        id="svg_88"
        stroke="null"
      ></path>
    </g>
    <g opacity="0.1" id="svg_89" stroke="null">
      <path
        d="m212.27,434.83s22.25,-56.73 64.78,-78.17a92.36,92.36 0 0 0 41.42,-41.18a155.26,155.26 0 0 0 10.2,-26.5"
        fill="none"
        stroke-miterlimit="10"
        stroke-width="2"
        id="svg_90"
        stroke="#535461"
      ></path>
      <path
        d="m355.41,275.31c-4.4,5.66 -27.38,14.11 -27.38,14.11s2.49,-24.36 6.89,-30a13,13 0 1 1 20.49,15.89z"
        fill="#ffd700"
        id="svg_91"
        stroke="null"
      ></path>
      <path
        d="m347.99,319.8c-6.76,2.36 -30.65,-3 -30.65,-3s15.33,-19.1 22.09,-21.46a13,13 0 1 1 8.56,24.49l0,-0.03z"
        fill="#ffd700"
        id="svg_92"
        stroke="null"
      ></path>
      <path
        d="m305.66,372.79c-7,-1.38 -24.92,-18.1 -24.92,-18.1s22.87,-8.74 29.9,-7.36a13,13 0 1 1 -5,25.46l0.02,0z"
        fill="#ffd700"
        id="svg_93"
        stroke="null"
      ></path>
      <path
        d="m264.61,405.67c-7.16,-0.17 -27.62,-13.62 -27.62,-13.62s21.07,-12.49 28.23,-12.32a13,13 0 0 1 -0.61,25.94z"
        fill="#ffd700"
        id="svg_94"
        stroke="null"
      ></path>
      <path
        d="m294.97,301.16c1,7.09 16.74,25.86 16.74,25.86s10,-22.38 9,-29.47a13,13 0 1 0 -25.69,3.61l-0.05,0z"
        fill="#ffd700"
        id="svg_95"
        stroke="null"
      ></path>
      <path
        d="m247.41,340.22c3.08,6.47 23.71,19.67 23.71,19.67s2.8,-24.33 -0.28,-30.8a13,13 0 0 0 -23.43,11.13z"
        fill="#ffd700"
        id="svg_96"
        stroke="null"
      ></path>
      <path
        d="m206.47,384.53c1.94,6.89 20,23.39 20,23.39s6.94,-23.51 4.94,-30.41a13,13 0 1 0 -25,7l0.06,0.02z"
        fill="#ffd700"
        id="svg_97"
        stroke="null"
      ></path>
    </g>
    <g opacity="0.1" id="svg_98" stroke="null">
      <path
        d="m660.66,724.37s0.94,-60.92 33.25,-95.92a92.26,92.26 0 0 0 24.36,-53.08a155.39,155.39 0 0 0 0.25,-28.4"
        fill="none"
        stroke-miterlimit="10"
        stroke-width="2"
        id="svg_99"
        stroke="#535461"
      ></path>
      <path
        d="m738.75,524.8c-2.13,6.81 -20.69,22.81 -20.69,22.81s-6.2,-23.7 -4.07,-30.54a13,13 0 0 1 24.76,7.72l0,0.01z"
        fill="#ffd700"
        id="svg_100"
        stroke="null"
      ></path>
      <path
        d="m747.41,569.06c-5.51,4.58 -29.77,7.91 -29.77,7.91s7.66,-23.26 13.17,-27.85a13,13 0 0 1 16.6,19.94z"
        fill="#ffd700"
        id="svg_101"
        stroke="null"
      ></path>
      <path
        d="m726.41,633.52c-7.07,1.18 -29.69,-8.2 -29.69,-8.2s18.36,-16.21 25.42,-17.39a13,13 0 0 1 4.27,25.59z"
        fill="#ffd700"
        id="svg_102"
        stroke="null"
      ></path>
      <path
        d="m699.41,678.71c-6.77,2.35 -30.65,-3.07 -30.65,-3.07s15.4,-19.03 22.16,-21.43a13,13 0 1 1 8.49,24.5z"
        fill="#ffd700"
        id="svg_103"
        stroke="null"
      ></path>
      <path
        d="m691.24,570.19c3.42,6.3 24.74,18.35 24.74,18.35s1.47,-24.44 -2,-30.74a13,13 0 0 0 -22.79,12.39l0.05,0z"
        fill="#ffd700"
        id="svg_104"
        stroke="null"
      ></path>
      <path
        d="m660.41,623.44c5.15,5 29.1,10.1 29.1,10.1s-5.91,-23.76 -11.06,-28.75a13,13 0 0 0 -18,18.65l-0.04,0z"
        fill="#ffd700"
        id="svg_105"
        stroke="null"
      ></path>
      <path
        d="m637.59,679.3c4.23,5.78 27,14.88 27,14.88s-1.81,-24.43 -6,-30.21a13,13 0 0 0 -20.93,15.33l-0.07,0z"
        fill="#ffd700"
        id="svg_106"
        stroke="null"
      ></path>
    </g>
    <g opacity="0.1" id="svg_107" stroke="null">
      <path
        d="m426.71,876.79s0.94,-60.93 33.25,-95.93a92.26,92.26 0 0 0 24.36,-53.08a155.28,155.28 0 0 0 0.25,-28.39"
        fill="none"
        stroke-miterlimit="10"
        stroke-width="2"
        id="svg_108"
        stroke="#535461"
      ></path>
      <path
        d="m504.8,677.21c-2.13,6.84 -20.69,22.82 -20.69,22.82s-6.2,-23.69 -4.07,-30.53a13,13 0 1 1 24.76,7.71z"
        fill="#ffd700"
        id="svg_109"
        stroke="null"
      ></path>
      <path
        d="m513.48,721.47c-5.51,4.59 -29.77,7.91 -29.77,7.91s7.66,-23.26 13.17,-27.84a13,13 0 0 1 16.6,19.93z"
        fill="#ffd700"
        id="svg_110"
        stroke="null"
      ></path>
      <path
        d="m492.41,785.94c-7.07,1.17 -29.69,-8.21 -29.69,-8.21s18.36,-16.21 25.42,-17.38a13,13 0 1 1 4.27,25.59z"
        fill="#ffd700"
        id="svg_111"
        stroke="null"
      ></path>
      <path
        d="m465.5,831.12c-6.77,2.36 -30.65,-3.07 -30.65,-3.07s15.36,-19.07 22.12,-21.44a13,13 0 1 1 8.53,24.5l0,0.01z"
        fill="#ffd700"
        id="svg_112"
        stroke="null"
      ></path>
      <path
        d="m457.29,722.61c3.42,6.3 24.74,18.35 24.74,18.35s1.47,-24.44 -2,-30.74a13,13 0 1 0 -22.74,12.39z"
        fill="#ffd700"
        id="svg_113"
        stroke="null"
      ></path>
      <path
        d="m426.48,775.85c5.15,5 29.1,10.11 29.1,10.11s-5.91,-23.77 -11.06,-28.75a13,13 0 1 0 -18,18.64l-0.04,0z"
        fill="#ffd700"
        id="svg_114"
        stroke="null"
      ></path>
      <path
        d="m403.64,831.71c4.23,5.78 27,14.88 27,14.88s-1.81,-24.43 -6,-30.21a13,13 0 1 0 -20.93,15.33l-0.07,0z"
        fill="#ffd700"
        id="svg_115"
        stroke="null"
      ></path>
    </g>
    <path
      d="m405.41,77.47c2,6.16 -3.42,27.6 -3.42,27.6s-16.88,-14.27 -18.86,-20.46a11.71,11.71 0 1 1 22.28,-7.14z"
      fill="rgba(255, 215, 0, .5)"
      id="svg_116"
      stroke="null"
    ></path>
    <path
      d="m322.41,214.61c2,6.16 -3.42,27.6 -3.42,27.6s-16.9,-14.27 -18.88,-20.43a11.71,11.71 0 0 1 22.3,-7.17z"
      fill="rgba(255, 215, 0, .5)"
      id="svg_117"
      stroke="null"
    ></path>
    <path
      d="m497.27,154.16c2,6.16 -3.43,27.6 -3.43,27.6s-16.89,-14.26 -18.87,-20.42a11.71,11.71 0 1 1 22.3,-7.18z"
      fill="rgba(255, 215, 0, .5)"
      id="svg_118"
      stroke="null"
    ></path>
    <path
      d="m587.73,257.79c2,6.15 -3.42,27.59 -3.42,27.59s-16.9,-14.26 -18.9,-20.42a11.71,11.71 0 1 1 22.29,-7.17l0.03,0z"
      fill="rgba(255, 215, 0, .5)"
      id="svg_119"
      stroke="null"
    ></path>
    <path
      d="m526.69,87.61c-3.29,5.57 -22.91,15.76 -22.91,15.76s-0.55,-22.1 2.74,-27.67a11.71,11.71 0 0 1 20.17,11.91z"
      fill="rgba(255, 215, 0, .5)"
      id="svg_120"
      stroke="null"
    ></path>
    <path
      d="m747.94,70.92c-3.29,5.57 -22.91,15.76 -22.91,15.76s-0.54,-22.11 2.75,-27.67a11.71,11.71 0 1 1 20.16,11.91z"
      fill="rgba(255, 215, 0, .5)"
      id="svg_121"
      stroke="null"
    ></path>
    <path
      d="m302.41,113.84c-6.26,1.63 -27.36,-5 -27.36,-5s15.21,-16.05 21.47,-17.68a11.71,11.71 0 1 1 5.89,22.68z"
      fill="rgba(255, 215, 0, .5)"
      id="svg_122"
      stroke="null"
    ></path>
    <path
      d="m505.13,366.91c-3.29,5.57 -22.91,15.76 -22.91,15.76s-0.55,-22.1 2.74,-27.67a11.71,11.71 0 1 1 20.17,11.91z"
      fill="rgba(255, 215, 0, .5)"
      id="svg_123"
      stroke="null"
    ></path>
    <g opacity="0.1" id="svg_132" stroke="null">
      <path
        d="m187.71,757.79s0.94,-60.93 33.25,-95.93a92.26,92.26 0 0 0 24.36,-53.08a155.28,155.28 0 0 0 0.25,-28.39"
        fill="none"
        stroke-miterlimit="10"
        stroke-width="2"
        id="svg_124"
        stroke="#535461"
      ></path>
      <path
        d="m265.8,558.21c-2.13,6.84 -20.69,22.82 -20.69,22.82s-6.2,-23.69 -4.07,-30.53a13,13 0 1 1 24.76,7.71z"
        fill="#ffd700"
        id="svg_125"
        stroke="null"
      ></path>
      <path
        d="m274.48,602.47c-5.51,4.59 -29.77,7.91 -29.77,7.91s7.66,-23.26 13.17,-27.84a13,13 0 0 1 16.6,19.93z"
        fill="#ffd700"
        id="svg_126"
        stroke="null"
      ></path>
      <path
        d="m253.41,666.94c-7.07,1.17 -29.69,-8.21 -29.69,-8.21s18.36,-16.21 25.42,-17.38a13,13 0 1 1 4.27,25.59z"
        fill="#ffd700"
        id="svg_127"
        stroke="null"
      ></path>
      <path
        d="m226.5,712.12c-6.77,2.36 -30.65,-3.07 -30.65,-3.07s15.36,-19.07 22.12,-21.44a13,13 0 1 1 8.53,24.5l0,0.01z"
        fill="#ffd700"
        id="svg_128"
        stroke="null"
      ></path>
      <path
        d="m218.29,603.61c3.42,6.3 24.74,18.35 24.74,18.35s1.47,-24.44 -2,-30.74a13,13 0 1 0 -22.74,12.39z"
        fill="#ffd700"
        id="svg_129"
        stroke="null"
      ></path>
      <path
        d="m187.48,656.85c5.15,5 29.1,10.11 29.1,10.11s-5.91,-23.77 -11.06,-28.75a13,13 0 1 0 -18,18.64l-0.04,0z"
        fill="#ffd700"
        id="svg_130"
        stroke="null"
      ></path>
      <path
        d="m164.64,712.71c4.23,5.78 27,14.88 27,14.88s-1.81,-24.43 -6,-30.21a13,13 0 1 0 -20.93,15.33l-0.07,0z"
        fill="#ffd700"
        id="svg_131"
        stroke="null"
      ></path>
    </g>
    <g opacity="0.1" id="svg_141" stroke="null">
      <path
        d="m887.66,460.37s0.94,-60.92 33.25,-95.92a92.26,92.26 0 0 0 24.36,-53.08a155.39,155.39 0 0 0 0.25,-28.4"
        fill="none"
        stroke-miterlimit="10"
        stroke-width="2"
        id="svg_133"
        stroke="#535461"
      ></path>
      <path
        d="m965.75,260.8c-2.13,6.81 -20.69,22.81 -20.69,22.81s-6.2,-23.7 -4.07,-30.54a13,13 0 0 1 24.76,7.72l0,0.01z"
        fill="#ffd700"
        id="svg_134"
        stroke="null"
      ></path>
      <path
        d="m974.41,305.06c-5.51,4.58 -29.77,7.91 -29.77,7.91s7.66,-23.26 13.17,-27.85a13,13 0 0 1 16.6,19.94z"
        fill="#ffd700"
        id="svg_135"
        stroke="null"
      ></path>
      <path
        d="m953.41,369.52c-7.07,1.18 -29.69,-8.2 -29.69,-8.2s18.36,-16.21 25.42,-17.39a13,13 0 0 1 4.27,25.59z"
        fill="#ffd700"
        id="svg_136"
        stroke="null"
      ></path>
      <path
        d="m926.41,414.71c-6.77,2.35 -30.65,-3.07 -30.65,-3.07s15.4,-19.03 22.16,-21.43a13,13 0 1 1 8.49,24.5z"
        fill="#ffd700"
        id="svg_137"
        stroke="null"
      ></path>
      <path
        d="m918.24,306.19c3.42,6.3 24.74,18.35 24.74,18.35s1.47,-24.44 -2,-30.74a13,13 0 0 0 -22.79,12.39l0.05,0z"
        fill="#ffd700"
        id="svg_138"
        stroke="null"
      ></path>
      <path
        d="m887.41,359.44c5.15,5 29.1,10.1 29.1,10.1s-5.91,-23.76 -11.06,-28.75a13,13 0 0 0 -18,18.65l-0.04,0z"
        fill="#ffd700"
        id="svg_139"
        stroke="null"
      ></path>
      <path
        d="m864.59,415.3c4.23,5.78 27,14.88 27,14.88s-1.81,-24.43 -6,-30.21a13,13 0 0 0 -20.93,15.33l-0.07,0z"
        fill="#ffd700"
        id="svg_140"
        stroke="null"
      ></path>
    </g>
  </g>
</svg>